# xmcd
#
# Track frame offsets: 
#        150
#        13268
#        41363
#        54793
#        67938
#        76993
#        89315
#        100972
#        117637
#        127372
#        145012
#        156998
#        169153
#        180923
#        193346
#        206778
#        215756
#        229906
#
# Disc length: 3266 seconds
#
# Revision: 0
# Processed by: cddbd v1.5.2PL0 Copyright (c) Steve Scherf et al.
# Submitted via: ExactAudioCopy v0.95a5
#
DISCID=060cc012
DTITLE=Ray Charles - all gold of the world
DYEAR=2004
DGENRE=Rock and Roll
TTITLE0=Unchain My Heart
TTITLE1=I've Got A Woman
TTITLE2=Let's Go Get Stonet
TTITLE3=Makin Believe
TTITLE4=Hit The Road Jack
TTITLE5=Mess Around
TTITLE6=This Little Girl Of Mine
TTITLE7=Geogria On My Mind
TTITLE8=Busted
TTITLE9=Ruby
TTITLE10=Lonley Avenue
TTITLE11=Together Again
TTITLE12=Hallelujah,I Love Her So
TTITLE13=It Had To Be You
TTITLE14=Crying Time
TTITLE15=Just You Just Me
TTITLE16=A Fool For You
TTITLE17=Drown In My Own Tears
EXTD=
EXTT0=
EXTT1=
EXTT2=
EXTT3=
EXTT4=
EXTT5=
EXTT6=
EXTT7=
EXTT8=
EXTT9=
EXTT10=
EXTT11=
EXTT12=
EXTT13=
EXTT14=
EXTT15=
EXTT16=
EXTT17=
PLAYORDER=
